<svg width="263" height="399" viewBox="0 0 263 399" fill="none" xmlns="http://www.w3.org/2000/svg">
<path d="M1 0.5H0.5V1V261.398C0.5 306.192 11.1765 340.28 32.6099 363.578C54.0568 386.891 87.1071 398.5 131.652 398.5C175.995 398.5 208.944 386.891 230.39 363.578C251.824 340.28 262.5 306.192 262.5 261.398V1V0.5H262H186.167H185.667V1V265.362C185.667 288.08 181.41 305.132 172.973 316.596L172.972 316.597C164.776 327.806 150.95 333.468 131.348 333.468C112.159 333.468 98.3247 327.81 89.719 316.592C81.2843 305.128 77.0286 288.077 77.0286 265.362V1V0.5H76.5286H1Z" fill="#1164F2" fill-opacity="0.07" stroke="#1164F2"/>
</svg>
